<?xml version="1.0" standalone="no"?>
<!DOCTYPE svg PUBLIC "-//W3C//DTD SVG 20010904//EN"
 "http://www.w3.org/TR/2001/REC-SVG-20010904/DTD/svg10.dtd">
<svg version="1.0" xmlns="http://www.w3.org/2000/svg"
 width="206.000000pt" height="206.000000pt" viewBox="0 0 206.000000 206.000000"
 preserveAspectRatio="xMidYMid meet">
<metadata>
Created by potrace 1.14, written by Peter Selinger 2001-2017
</metadata>
<g transform="translate(0.000000,206.000000) scale(0.100000,-0.100000)"
fill="#000000" stroke="none">
<path d="M1870 1505 c-6 -8 -12 -39 -12 -70 l-1 -55 -63 0 c-56 0 -64 -3 -83
-27 l-20 -28 -1 66 c0 83 -13 96 -93 97 -79 1 -95 -15 -93 -96 1 -60 1 -61
-19 -47 -11 9 -31 21 -45 27 -31 15 -169 16 -194 1 -14 -7 -26 -6 -48 5 -21
10 -44 12 -76 8 -26 -4 -56 -7 -67 -7 -11 0 -47 0 -79 0 -60 1 -86 -10 -86
-35 0 -8 -4 -14 -10 -14 -5 0 -10 4 -10 8 0 5 -21 19 -46 31 -37 19 -55 22
-100 17 -61 -6 -87 -17 -125 -52 l-25 -24 -13 23 c-26 50 -109 69 -181 43 -29
-10 -41 -9 -70 2 -23 9 -50 12 -80 8 -25 -4 -77 -7 -117 -6 -117 2 -112 9
-112 -195 l0 -174 26 -21 c24 -19 25 -21 9 -38 -20 -23 -21 -61 -1 -69 21 -7
18 -90 -3 -98 -10 -4 -12 -14 -8 -38 4 -17 9 -68 11 -112 2 -44 4 -83 4 -87 1
-4 440 -8 976 -8 l975 0 0 87 c0 75 3 90 22 110 22 24 27 75 9 97 -6 7 -8 28
-5 47 5 26 1 40 -12 54 -19 18 -27 44 -16 46 26 3 46 9 53 16 5 5 10 118 13
251 3 203 1 245 -11 258 -20 20 -156 20 -173 -1z"/>
</g>
</svg>
